M48
; DRILL file {KiCad (7.0.0)} date Tue Apr 25 22:45:53 2023
; FORMAT={-:-/ absolute / inch / decimal}
; #@! TF.CreationDate,2023-04-25T22:45:53-05:00
; #@! TF.GenerationSoftware,Kicad,Pcbnew,(7.0.0)
; #@! TF.FileFunction,Plated,1,4,PTH
FMAT,2
INCH
; #@! TA.AperFunction,Plated,PTH,ViaDrill
T1C0.0157
; #@! TA.AperFunction,Plated,PTH,ComponentDrill
T2C0.0315
; #@! TA.AperFunction,Plated,PTH,ViaDrill
T3C0.0394
; #@! TA.AperFunction,Plated,PTH,ComponentDrill
T4C0.0394
%
G90
G05
T1
X4.58Y-2.7
X4.58Y-2.75
X4.58Y-2.8
X4.58Y-2.85
X4.58Y-2.9
X4.58Y-2.95
X4.58Y-3.0
X4.63Y-2.7
X4.63Y-2.75
X4.63Y-2.8
X4.63Y-2.85
X4.63Y-2.9
X4.63Y-2.95
X4.63Y-3.0
X4.68Y-2.7
X4.68Y-2.75
X4.68Y-2.8
X4.68Y-2.85
X4.68Y-2.9
X4.68Y-2.95
X4.68Y-3.0
X4.73Y-2.7
X4.73Y-2.75
X4.73Y-2.8
X4.73Y-2.85
X4.73Y-2.9
X4.73Y-2.95
X4.73Y-3.0
X5.02Y-2.17
X5.2Y-2.7
X5.2Y-2.75
X5.2Y-2.8
X5.2Y-2.85
X5.2Y-2.9
X5.2Y-2.95
X5.2Y-3.0
X5.25Y-2.7
X5.25Y-2.75
X5.25Y-2.8
X5.25Y-2.85
X5.25Y-2.9
X5.25Y-2.95
X5.25Y-3.0
X5.3Y-2.7
X5.3Y-2.75
X5.3Y-2.8
X5.3Y-2.85
X5.3Y-2.9
X5.3Y-2.95
X5.3Y-3.0
X5.35Y-2.7
X5.35Y-2.75
X5.35Y-2.8
X5.35Y-2.85
X5.35Y-2.9
X5.35Y-2.95
X5.35Y-3.0
X5.59Y-2.94
X5.63Y-2.7
X5.84Y-2.7
X5.84Y-2.75
X5.84Y-2.8
X5.84Y-2.85
X5.84Y-2.9
X5.84Y-2.95
X5.84Y-3.0
X5.89Y-2.7
X5.89Y-2.75
X5.89Y-2.8
X5.89Y-2.85
X5.89Y-2.9
X5.89Y-2.95
X5.89Y-3.0
X5.94Y-2.7
X5.94Y-2.75
X5.94Y-2.8
X5.94Y-2.85
X5.94Y-2.9
X5.94Y-2.95
X5.94Y-3.0
X5.99Y-2.7
X5.99Y-2.75
X5.99Y-2.8
X5.99Y-2.85
X5.99Y-2.9
X5.99Y-2.95
X5.99Y-3.0
X6.07Y-2.33
X6.13Y-2.33
X6.48Y-2.71
X6.48Y-2.76
X6.48Y-2.81
X6.48Y-2.86
X6.48Y-2.91
X6.48Y-2.96
X6.48Y-3.01
X6.53Y-2.71
X6.53Y-2.76
X6.53Y-2.81
X6.53Y-2.86
X6.53Y-2.91
X6.53Y-2.96
X6.53Y-3.01
X6.58Y-2.71
X6.58Y-2.76
X6.58Y-2.81
X6.58Y-2.86
X6.58Y-2.91
X6.58Y-2.96
X6.58Y-3.01
X6.63Y-2.71
X6.63Y-2.76
X6.63Y-2.81
X6.63Y-2.86
X6.63Y-2.91
X6.63Y-2.96
X6.63Y-3.01
X7.14Y-2.71
X7.14Y-2.76
X7.14Y-2.81
X7.14Y-2.86
X7.14Y-2.91
X7.14Y-2.96
X7.14Y-3.01
X7.17Y-2.53
X7.19Y-2.71
X7.19Y-2.76
X7.19Y-2.81
X7.19Y-2.86
X7.19Y-2.91
X7.19Y-2.96
X7.19Y-3.01
X7.21Y-3.09
X7.24Y-2.71
X7.24Y-2.76
X7.24Y-2.81
X7.24Y-2.86
X7.24Y-2.91
X7.24Y-2.96
X7.24Y-3.01
X7.29Y-2.71
X7.29Y-2.76
X7.29Y-2.81
X7.29Y-2.86
X7.29Y-2.91
X7.29Y-2.96
X7.29Y-3.01
X7.37Y-3.09
X7.75Y-3.02
X7.75Y-3.25
X7.76Y-3.34
T2
X4.81Y-2.5
X4.81Y-2.6
X4.81Y-2.7
X4.81Y-2.8
X4.81Y-2.9
X4.81Y-3.0
X4.81Y-3.1
X4.81Y-3.2
X4.82Y-3.3016
X4.82Y-3.4984
X5.11Y-2.1916
X5.11Y-2.3884
X5.11Y-2.5
X5.11Y-2.6
X5.11Y-2.7
X5.11Y-2.8
X5.11Y-2.9
X5.11Y-3.0
X5.11Y-3.1
X5.11Y-3.2
X5.45Y-2.5
X5.45Y-2.6
X5.45Y-2.7
X5.45Y-2.8
X5.45Y-2.9
X5.45Y-3.0
X5.45Y-3.1
X5.45Y-3.2
X5.46Y-3.3016
X5.46Y-3.4984
X5.75Y-2.1916
X5.75Y-2.3884
X5.75Y-2.5
X5.75Y-2.6
X5.75Y-2.7
X5.75Y-2.8
X5.75Y-2.9
X5.75Y-3.0
X5.75Y-3.1
X5.75Y-3.2
X6.09Y-2.51
X6.09Y-2.61
X6.09Y-2.71
X6.09Y-2.81
X6.09Y-2.91
X6.09Y-3.01
X6.09Y-3.11
X6.09Y-3.21
X6.1Y-3.3116
X6.1Y-3.5084
X6.39Y-2.2016
X6.39Y-2.3984
X6.39Y-2.51
X6.39Y-2.61
X6.39Y-2.71
X6.39Y-2.81
X6.39Y-2.91
X6.39Y-3.01
X6.39Y-3.11
X6.39Y-3.21
X6.73Y-2.51
X6.73Y-2.61
X6.73Y-2.71
X6.73Y-2.81
X6.73Y-2.91
X6.73Y-3.01
X6.73Y-3.11
X6.73Y-3.21
X6.75Y-3.3116
X6.75Y-3.5084
X7.03Y-2.2016
X7.03Y-2.3984
X7.03Y-2.51
X7.03Y-2.61
X7.03Y-2.71
X7.03Y-2.81
X7.03Y-2.91
X7.03Y-3.01
X7.03Y-3.11
X7.03Y-3.21
T3
X5.15Y-3.4
X5.79Y-3.4
X6.43Y-3.4
X7.07Y-3.4
T4
X4.8Y-3.93
X4.9Y-3.93
X5.0Y-3.93
X5.1Y-3.93
X5.44Y-3.93
X5.54Y-3.93
X5.64Y-3.93
X5.74Y-3.93
X5.8098Y-3.56
X5.9098Y-2.03
X5.9098Y-3.56
X6.0098Y-2.03
X6.08Y-3.93
X6.18Y-3.93
X6.28Y-3.93
X6.38Y-3.93
X6.72Y-3.93
X6.82Y-3.93
X6.92Y-3.93
X7.02Y-3.93
X7.56Y-2.03
X7.56Y-2.13
X7.56Y-2.23
X7.56Y-2.33
X7.56Y-2.43
X7.56Y-2.53
X7.56Y-2.63
X7.56Y-2.73
X7.56Y-2.83
X7.56Y-2.93
X7.56Y-3.03
X7.56Y-3.13
X7.56Y-3.23
X7.56Y-3.33
X7.56Y-3.43
X7.56Y-3.53
X7.56Y-3.63
X7.56Y-3.73
X7.56Y-3.83
X7.56Y-3.93
X7.66Y-2.03
X7.66Y-2.13
X7.66Y-2.23
X7.66Y-2.33
X7.66Y-2.43
X7.66Y-2.53
X7.66Y-2.63
X7.66Y-2.73
X7.66Y-2.83
X7.66Y-2.93
X7.66Y-3.03
X7.66Y-3.13
X7.66Y-3.23
X7.66Y-3.33
X7.66Y-3.43
X7.66Y-3.53
X7.66Y-3.63
X7.66Y-3.73
X7.66Y-3.83
X7.66Y-3.93
T0
M30
