%TF.GenerationSoftware,KiCad,Pcbnew,(7.0.0)*%
%TF.CreationDate,2023-04-25T22:49:32-05:00*%
%TF.ProjectId,ThorPCB,54686f72-5043-4422-9e6b-696361645f70,rev?*%
%TF.SameCoordinates,Original*%
%TF.FileFunction,Soldermask,Bot*%
%TF.FilePolarity,Negative*%
%FSLAX46Y46*%
G04 Gerber Fmt 4.6, Leading zero omitted, Abs format (unit mm)*
G04 Created by KiCad (PCBNEW (7.0.0)) date 2023-04-25 22:49:32*
%MOMM*%
%LPD*%
G01*
G04 APERTURE LIST*
%ADD10C,1.600000*%
%ADD11R,1.600000X1.600000*%
%ADD12O,1.600000X1.600000*%
%ADD13R,1.700000X1.700000*%
%ADD14O,1.700000X1.700000*%
G04 APERTURE END LIST*
D10*
%TO.C,C8*%
X129794000Y-60666000D03*
X129794000Y-55666000D03*
%TD*%
%TO.C,C7*%
X146050000Y-60666000D03*
X146050000Y-55666000D03*
%TD*%
%TO.C,C6*%
X162306000Y-55920000D03*
X162306000Y-60920000D03*
%TD*%
%TO.C,C5*%
X178562000Y-60920000D03*
X178562000Y-55920000D03*
%TD*%
%TO.C,C4*%
X171450000Y-84114000D03*
X171450000Y-89114000D03*
%TD*%
%TO.C,C3*%
X154940000Y-84114000D03*
X154940000Y-89114000D03*
%TD*%
%TO.C,C2*%
X138684000Y-83860000D03*
X138684000Y-88860000D03*
%TD*%
%TO.C,C1*%
X122428000Y-83860000D03*
X122428000Y-88860000D03*
%TD*%
D11*
%TO.C,U2*%
X154685999Y-63753999D03*
D12*
X154685999Y-66293999D03*
X154685999Y-68833999D03*
X154685999Y-71373999D03*
X154685999Y-73913999D03*
X154685999Y-76453999D03*
X154685999Y-78993999D03*
X154685999Y-81533999D03*
X162305999Y-81533999D03*
X162305999Y-78993999D03*
X162305999Y-76453999D03*
X162305999Y-73913999D03*
X162305999Y-71373999D03*
X162305999Y-68833999D03*
X162305999Y-66293999D03*
X162305999Y-63753999D03*
%TD*%
D11*
%TO.C,U3*%
X170941999Y-63753999D03*
D12*
X170941999Y-66293999D03*
X170941999Y-68833999D03*
X170941999Y-71373999D03*
X170941999Y-73913999D03*
X170941999Y-76453999D03*
X170941999Y-78993999D03*
X170941999Y-81533999D03*
X178561999Y-81533999D03*
X178561999Y-78993999D03*
X178561999Y-76453999D03*
X178561999Y-73913999D03*
X178561999Y-71373999D03*
X178561999Y-68833999D03*
X178561999Y-66293999D03*
X178561999Y-63753999D03*
%TD*%
D13*
%TO.C,J1*%
X192023999Y-51561999D03*
D14*
X194563999Y-51561999D03*
X192023999Y-54101999D03*
X194563999Y-54101999D03*
X192023999Y-56641999D03*
X194563999Y-56641999D03*
X192023999Y-59181999D03*
X194563999Y-59181999D03*
X192023999Y-61721999D03*
X194563999Y-61721999D03*
X192023999Y-64261999D03*
X194563999Y-64261999D03*
X192023999Y-66801999D03*
X194563999Y-66801999D03*
X192023999Y-69341999D03*
X194563999Y-69341999D03*
X192023999Y-71881999D03*
X194563999Y-71881999D03*
X192023999Y-74421999D03*
X194563999Y-74421999D03*
X192023999Y-76961999D03*
X194563999Y-76961999D03*
X192023999Y-79501999D03*
X194563999Y-79501999D03*
X192023999Y-82041999D03*
X194563999Y-82041999D03*
X192023999Y-84581999D03*
X194563999Y-84581999D03*
X192023999Y-87121999D03*
X194563999Y-87121999D03*
X192023999Y-89661999D03*
X194563999Y-89661999D03*
X192023999Y-92201999D03*
X194563999Y-92201999D03*
X192023999Y-94741999D03*
X194563999Y-94741999D03*
X192023999Y-97281999D03*
X194563999Y-97281999D03*
X192023999Y-99821999D03*
X194563999Y-99821999D03*
%TD*%
D12*
%TO.C,U1*%
X146049999Y-63499999D03*
X146049999Y-66039999D03*
X146049999Y-68579999D03*
X146049999Y-71119999D03*
X146049999Y-73659999D03*
X146049999Y-76199999D03*
X146049999Y-78739999D03*
X146049999Y-81279999D03*
X138429999Y-81279999D03*
X138429999Y-78739999D03*
X138429999Y-76199999D03*
X138429999Y-73659999D03*
X138429999Y-71119999D03*
X138429999Y-68579999D03*
X138429999Y-66039999D03*
D11*
X138429999Y-63499999D03*
%TD*%
D13*
%TO.C,+*%
X147568999Y-90423999D03*
D14*
X150108999Y-90423999D03*
%TD*%
D13*
%TO.C,M1*%
X138175999Y-99821999D03*
D14*
X140715999Y-99821999D03*
X143255999Y-99821999D03*
X145795999Y-99821999D03*
%TD*%
D11*
%TO.C,U0*%
X122173999Y-63499999D03*
D12*
X122173999Y-66039999D03*
X122173999Y-68579999D03*
X122173999Y-71119999D03*
X122173999Y-73659999D03*
X122173999Y-76199999D03*
X122173999Y-78739999D03*
X122173999Y-81279999D03*
X129793999Y-81279999D03*
X129793999Y-78739999D03*
X129793999Y-76199999D03*
X129793999Y-73659999D03*
X129793999Y-71119999D03*
X129793999Y-68579999D03*
X129793999Y-66039999D03*
X129793999Y-63499999D03*
%TD*%
D13*
%TO.C,M3*%
X170687999Y-99821999D03*
D14*
X173227999Y-99821999D03*
X175767999Y-99821999D03*
X178307999Y-99821999D03*
%TD*%
D13*
%TO.C,M0*%
X121919999Y-99821999D03*
D14*
X124459999Y-99821999D03*
X126999999Y-99821999D03*
X129539999Y-99821999D03*
%TD*%
D13*
%TO.C,J3*%
X150108999Y-51561999D03*
D14*
X152648999Y-51561999D03*
%TD*%
D13*
%TO.C,M2*%
X154431999Y-99821999D03*
D14*
X156971999Y-99821999D03*
X159511999Y-99821999D03*
X162051999Y-99821999D03*
%TD*%
M02*
