%TF.GenerationSoftware,KiCad,Pcbnew,8.0.0*%
%TF.CreationDate,2024-10-25T13:51:21-05:00*%
%TF.ProjectId,ThorPBC2.0,54686f72-5042-4433-922e-302e6b696361,rev?*%
%TF.SameCoordinates,Original*%
%TF.FileFunction,Soldermask,Bot*%
%TF.FilePolarity,Negative*%
%FSLAX46Y46*%
G04 Gerber Fmt 4.6, Leading zero omitted, Abs format (unit mm)*
G04 Created by KiCad (PCBNEW 8.0.0) date 2024-10-25 13:51:21*
%MOMM*%
%LPD*%
G01*
G04 APERTURE LIST*
G04 Aperture macros list*
%AMRoundRect*
0 Rectangle with rounded corners*
0 $1 Rounding radius*
0 $2 $3 $4 $5 $6 $7 $8 $9 X,Y pos of 4 corners*
0 Add a 4 corners polygon primitive as box body*
4,1,4,$2,$3,$4,$5,$6,$7,$8,$9,$2,$3,0*
0 Add four circle primitives for the rounded corners*
1,1,$1+$1,$2,$3*
1,1,$1+$1,$4,$5*
1,1,$1+$1,$6,$7*
1,1,$1+$1,$8,$9*
0 Add four rect primitives between the rounded corners*
20,1,$1+$1,$2,$3,$4,$5,0*
20,1,$1+$1,$4,$5,$6,$7,0*
20,1,$1+$1,$6,$7,$8,$9,0*
20,1,$1+$1,$8,$9,$2,$3,0*%
G04 Aperture macros list end*
%ADD10C,3.000000*%
%ADD11RoundRect,0.250000X-1.400000X1.100000X-1.400000X-1.100000X1.400000X-1.100000X1.400000X1.100000X0*%
%ADD12O,3.300000X2.700000*%
%ADD13R,1.270000X1.270000*%
%ADD14C,1.270000*%
%ADD15R,1.700000X1.700000*%
%ADD16O,1.700000X1.700000*%
%ADD17R,2.200000X2.200000*%
%ADD18C,2.200000*%
%ADD19R,1.371600X1.371600*%
%ADD20C,1.371600*%
%ADD21R,1.600000X1.600000*%
%ADD22O,1.600000X1.600000*%
%ADD23C,2.900000*%
%ADD24C,5.000000*%
%ADD25R,1.295400X1.295400*%
%ADD26C,1.295400*%
%ADD27C,1.498600*%
%ADD28O,1.800000X1.800000*%
%ADD29O,1.500000X1.500000*%
G04 APERTURE END LIST*
D10*
%TO.C,J6*%
X158651085Y-72681398D03*
D11*
X163750000Y-77400000D03*
D12*
X163750000Y-81600000D03*
X163750000Y-85800000D03*
X163750000Y-90000000D03*
X163750000Y-94200000D03*
X163750000Y-98400000D03*
X163750000Y-102600000D03*
X163750000Y-106800000D03*
X163750000Y-111000000D03*
X163750000Y-115200000D03*
X163750000Y-119400000D03*
X163750000Y-123600000D03*
X158250000Y-77400000D03*
X158250000Y-81600000D03*
X158250000Y-85800000D03*
X158250000Y-90000000D03*
X158250000Y-94200000D03*
X158250000Y-98400000D03*
X158250000Y-102600000D03*
X158250000Y-106800000D03*
X158250000Y-111000000D03*
X158250000Y-115200000D03*
X158250000Y-119400000D03*
X158250000Y-123600000D03*
%TD*%
D13*
%TO.C,C2*%
X82500000Y-88540000D03*
D14*
X82500000Y-91080000D03*
%TD*%
D15*
%TO.C,J7*%
X112818735Y-76880534D03*
D16*
X112818735Y-79420534D03*
X112818735Y-81960534D03*
%TD*%
D17*
%TO.C,J12*%
X57000000Y-102185000D03*
D18*
X57000000Y-104725000D03*
X57000000Y-107265000D03*
X57000000Y-109805000D03*
%TD*%
D19*
%TO.C,R2*%
X67246000Y-76869400D03*
D20*
X78650600Y-76869400D03*
%TD*%
D19*
%TO.C,C11*%
X90500000Y-154880000D03*
D20*
X90500000Y-159960000D03*
%TD*%
D13*
%TO.C,C5*%
X77365000Y-132880000D03*
D14*
X79905000Y-132880000D03*
%TD*%
D19*
%TO.C,R5*%
X66797700Y-102800000D03*
D20*
X78202300Y-102800000D03*
%TD*%
D13*
%TO.C,C4*%
X82500000Y-118689600D03*
D14*
X82500000Y-121229600D03*
%TD*%
D13*
%TO.C,C7*%
X102365000Y-132880000D03*
D14*
X104905000Y-132880000D03*
%TD*%
D21*
%TO.C,U5*%
X119760000Y-136840000D03*
D22*
X119760000Y-139380000D03*
X119760000Y-141920000D03*
X119760000Y-144460000D03*
X119760000Y-147000000D03*
X119760000Y-149540000D03*
X119760000Y-152080000D03*
X119760000Y-154620000D03*
X127380000Y-154620000D03*
X127380000Y-152080000D03*
X127380000Y-149540000D03*
X127380000Y-147000000D03*
X127380000Y-144460000D03*
X127380000Y-141920000D03*
X127380000Y-139380000D03*
X127380000Y-136840000D03*
%TD*%
D19*
%TO.C,R4*%
X66746000Y-91949600D03*
D20*
X78150600Y-91949600D03*
%TD*%
D15*
%TO.C,J9*%
X90500000Y-102460000D03*
D16*
X90500000Y-105000000D03*
X90500000Y-107540000D03*
X90500000Y-110080000D03*
X90500000Y-112620000D03*
X90500000Y-115160000D03*
X90500000Y-117700000D03*
X90500000Y-120240000D03*
X90500000Y-122780000D03*
X90500000Y-125320000D03*
%TD*%
D19*
%TO.C,R6*%
X66797700Y-106949600D03*
D20*
X78202300Y-106949600D03*
%TD*%
D17*
%TO.C,J10*%
X57000000Y-72185000D03*
D18*
X57000000Y-74725000D03*
X57000000Y-77265000D03*
X57000000Y-79805000D03*
%TD*%
D13*
%TO.C,C1*%
X83000000Y-73760000D03*
D14*
X83000000Y-76300000D03*
%TD*%
D17*
%TO.C,M4*%
X145500000Y-167500000D03*
D18*
X148040000Y-167500000D03*
X150580000Y-167500000D03*
X153120000Y-167500000D03*
%TD*%
D19*
%TO.C,R7*%
X66297700Y-117800000D03*
D20*
X77702300Y-117800000D03*
%TD*%
D13*
%TO.C,C9*%
X152065000Y-132935000D03*
D14*
X154605000Y-132935000D03*
%TD*%
D23*
%TO.C,REF\u002A\u002A*%
X57000000Y-167000000D03*
D24*
X57000000Y-167000000D03*
%TD*%
D21*
%TO.C,U3*%
X69380000Y-136840000D03*
D22*
X69380000Y-139380000D03*
X69380000Y-141920000D03*
X69380000Y-144460000D03*
X69380000Y-147000000D03*
X69380000Y-149540000D03*
X69380000Y-152080000D03*
X69380000Y-154620000D03*
X77000000Y-154620000D03*
X77000000Y-152080000D03*
X77000000Y-149540000D03*
X77000000Y-147000000D03*
X77000000Y-144460000D03*
X77000000Y-141920000D03*
X77000000Y-139380000D03*
X77000000Y-136840000D03*
%TD*%
D19*
%TO.C,C10*%
X65500000Y-154809900D03*
D20*
X65500000Y-159889900D03*
%TD*%
D23*
%TO.C,REF\u002A\u002A*%
X165000000Y-134000000D03*
D24*
X165000000Y-134000000D03*
%TD*%
D19*
%TO.C,C12*%
X115880000Y-154809900D03*
D20*
X115880000Y-159889900D03*
%TD*%
D17*
%TO.C,J13*%
X57000000Y-117000000D03*
D18*
X57000000Y-119540000D03*
X57000000Y-122080000D03*
X57000000Y-124620000D03*
%TD*%
D13*
%TO.C,C8*%
X127245000Y-132880000D03*
D14*
X129785000Y-132880000D03*
%TD*%
D17*
%TO.C,M2*%
X95500000Y-167500000D03*
D18*
X98040000Y-167500000D03*
X100580000Y-167500000D03*
X103120000Y-167500000D03*
%TD*%
D21*
%TO.C,U6*%
X144580000Y-136965000D03*
D22*
X144580000Y-139505000D03*
X144580000Y-142045000D03*
X144580000Y-144585000D03*
X144580000Y-147125000D03*
X144580000Y-149665000D03*
X144580000Y-152205000D03*
X144580000Y-154745000D03*
X152200000Y-154745000D03*
X152200000Y-152205000D03*
X152200000Y-149665000D03*
X152200000Y-147125000D03*
X152200000Y-144585000D03*
X152200000Y-142045000D03*
X152200000Y-139505000D03*
X152200000Y-136965000D03*
%TD*%
D21*
%TO.C,U4*%
X94380000Y-136840000D03*
D22*
X94380000Y-139380000D03*
X94380000Y-141920000D03*
X94380000Y-144460000D03*
X94380000Y-147000000D03*
X94380000Y-149540000D03*
X94380000Y-152080000D03*
X94380000Y-154620000D03*
X102000000Y-154620000D03*
X102000000Y-152080000D03*
X102000000Y-149540000D03*
X102000000Y-147000000D03*
X102000000Y-144460000D03*
X102000000Y-141920000D03*
X102000000Y-139380000D03*
X102000000Y-136840000D03*
%TD*%
D23*
%TO.C,REF\u002A\u002A*%
X57000000Y-66000000D03*
D24*
X57000000Y-66000000D03*
%TD*%
D23*
%TO.C,REF\u002A\u002A*%
X165000000Y-66000000D03*
D24*
X165000000Y-66000000D03*
%TD*%
D19*
%TO.C,R3*%
X66746000Y-87800000D03*
D20*
X78150600Y-87800000D03*
%TD*%
D23*
%TO.C,REF\u002A\u002A*%
X165000000Y-167000000D03*
D24*
X165000000Y-167000000D03*
%TD*%
D15*
%TO.C,J8*%
X90500000Y-68080000D03*
D16*
X90500000Y-70620000D03*
X90500000Y-73160000D03*
X90500000Y-75700000D03*
X90500000Y-78240000D03*
X90500000Y-80780000D03*
X90500000Y-83320000D03*
X90500000Y-85860000D03*
X90500000Y-88400000D03*
X90500000Y-90940000D03*
%TD*%
D15*
%TO.C,J5*%
X112878319Y-102270418D03*
D16*
X112878319Y-104810418D03*
X112878319Y-107350418D03*
%TD*%
D19*
%TO.C,R8*%
X66297700Y-121949600D03*
D20*
X77702300Y-121949600D03*
%TD*%
D17*
%TO.C,M1*%
X70500000Y-167500000D03*
D18*
X73040000Y-167500000D03*
X75580000Y-167500000D03*
X78120000Y-167500000D03*
%TD*%
D19*
%TO.C,R1*%
X67297700Y-72800000D03*
D20*
X78702300Y-72800000D03*
%TD*%
D17*
%TO.C,J11*%
X57000000Y-87185000D03*
D18*
X57000000Y-89725000D03*
X57000000Y-92265000D03*
X57000000Y-94805000D03*
%TD*%
D13*
%TO.C,C3*%
X82500000Y-103580000D03*
D14*
X82500000Y-106120000D03*
%TD*%
D25*
%TO.C,SW1*%
X151999999Y-66999999D03*
D26*
X149999999Y-66999999D03*
X147999998Y-66999999D03*
D27*
X154100000Y-66999999D03*
X145899999Y-66999999D03*
%TD*%
D28*
%TO.C,U7*%
X129275000Y-77000000D03*
D29*
X129575000Y-80030000D03*
X134425000Y-80030000D03*
D28*
X134725000Y-77000000D03*
D16*
X123110000Y-76870000D03*
X123110000Y-79410000D03*
D15*
X123110000Y-81950000D03*
D16*
X123110000Y-84490000D03*
X123110000Y-87030000D03*
X123110000Y-89570000D03*
X123110000Y-92110000D03*
D15*
X123110000Y-94650000D03*
D16*
X123110000Y-97190000D03*
X123110000Y-99730000D03*
X123110000Y-102270000D03*
X123110000Y-104810000D03*
D15*
X123110000Y-107350000D03*
D16*
X123110000Y-109890000D03*
X123110000Y-112430000D03*
X123110000Y-114970000D03*
X123110000Y-117510000D03*
D15*
X123110000Y-120050000D03*
D16*
X123110000Y-122590000D03*
X123110000Y-125130000D03*
X140890000Y-125130000D03*
X140890000Y-122590000D03*
D15*
X140890000Y-120050000D03*
D16*
X140890000Y-117510000D03*
X140890000Y-114970000D03*
X140890000Y-112430000D03*
X140890000Y-109890000D03*
D15*
X140890000Y-107350000D03*
D16*
X140890000Y-104810000D03*
X140890000Y-102270000D03*
X140890000Y-99730000D03*
X140890000Y-97190000D03*
D15*
X140890000Y-94650000D03*
D16*
X140890000Y-92110000D03*
X140890000Y-89570000D03*
X140890000Y-87030000D03*
X140890000Y-84490000D03*
D15*
X140890000Y-81950000D03*
D16*
X140890000Y-79410000D03*
X140890000Y-76870000D03*
X129460000Y-124900000D03*
D15*
X132000000Y-124900000D03*
D16*
X134540000Y-124900000D03*
%TD*%
D17*
%TO.C,M3*%
X121000000Y-167500000D03*
D18*
X123540000Y-167500000D03*
X126080000Y-167500000D03*
X128620000Y-167500000D03*
%TD*%
D19*
%TO.C,C13*%
X140700000Y-154934900D03*
D20*
X140700000Y-160014900D03*
%TD*%
M02*
